<svg xmlns="http://www.w3.org/2000/svg" viewBox="0 0 600 1200">
  <g fill="#d8d1c7">
    <circle cx="300" cy="105" r="68"/>
    <rect x="272" y="168" width="56" height="68" rx="24"/>
    <path d="M222 224 Q300 188 378 224 L414 514 Q392 588 366 640 L354 1112 H306 L292 690 H308 L294 1112 H246 L234 640 Q208 588 186 514 Z"/>
    <path d="M212 246 Q172 282 156 390 L126 668 Q124 700 150 704 Q178 704 184 674 L224 390 Z"/>
    <path d="M388 246 Q428 282 444 390 L474 668 Q476 700 450 704 Q422 704 416 674 L376 390 Z"/>
    <ellipse cx="270" cy="1140" rx="62" ry="24"/>
    <ellipse cx="330" cy="1140" rx="62" ry="24"/>
  </g>
</svg>
